<svg xmlns="http://www.w3.org/2000/svg" width="200" height="60" viewBox="0 0 200 60">
  <g id="Group_131" data-name="Group 131" transform="translate(-4506 -1083.214)">
    <rect id="Rectangle_48" data-name="Rectangle 48" width="200" height="60" transform="translate(4506 1083.214)" fill="#fff" opacity="0"/>
    <g id="Group_129" data-name="Group 129" transform="translate(4154 822.214)">
      <g id="Group_1" data-name="Group 1" transform="translate(353 262)">
        <path id="Path_1" data-name="Path 1" d="M20.988-58.633H15L.14-23.184H7.979l2.843-7.193H25.166l2.886,7.193h7.8ZM22.452-37.01H13.536l4.437-10.855Zm22.226,1.464c0-3.92,2.5-6.5,5.9-6.5a5.8,5.8,0,0,1,5.815,5.3v2.5a5.726,5.726,0,0,1-5.815,5.212c-3.532,0-5.9-2.584-5.9-6.5ZM63.329-60.27H56.351l.043,13.008a14.814,14.814,0,0,0-5.384-1.077,17.679,17.679,0,0,0-3.274.258A12.341,12.341,0,0,0,37.571-36.752a11.058,11.058,0,0,0-.043,2.068c.388,6.2,4.91,11.458,10.941,11.845.818.043,1.594.043,2.326.043a14.164,14.164,0,0,0,7.882-2.627,10.6,10.6,0,0,1,.172,2.24h4.48Zm3.79,4.48a15.7,15.7,0,0,0,.6,4.135,5.944,5.944,0,0,0,2.671.6,7.267,7.267,0,0,0,2.929-.6,6.858,6.858,0,0,0,.6-2.843,6.516,6.516,0,0,0-.6-2.8,6.106,6.106,0,0,0-2.671-.646A3.9,3.9,0,0,0,67.119-55.79Zm-.086,32.607h7.021v-24.9H67.033Z" transform="translate(-0.14 60.27)" fill="#fe4f19"/>
        <path id="Path_2" data-name="Path 2" d="M145.658-35.546c0,3.92-2.369,6.5-5.9,6.5a5.768,5.768,0,0,1-5.815-5.3v-2.412a5.768,5.768,0,0,1,5.815-5.3C143.159-42.007,145.658-39.466,145.658-35.546ZM127.05-60.27v37.086h4.437a10.4,10.4,0,0,1,.172-2.24,14.505,14.505,0,0,0,7.882,2.627c.732,0,1.508,0,2.326-.043,6.03-.388,10.6-5.6,10.941-11.845a11.061,11.061,0,0,0-.043-2.068c-.474-5.944-5.04-11.07-10.9-11.5a8.605,8.605,0,0,0-1.508-.086,22.009,22.009,0,0,0-6.418,1.077l.043-13.008Zm35.88,12.319h-6.978v14.473c0,6.719,4.566,10.682,11.845,10.725,6.763,0,11.285-3.661,11.716-9.39a21.784,21.784,0,0,0,.086-2.412l.043-13.4h-6.978v11.285c0,1.206-.043,2.369-.086,3.446-.215,2.843-1.809,4.35-4.781,4.35s-4.566-1.508-4.824-4.35c-.043-1.077-.086-2.24-.043-3.446Zm23.475-.129v20.8c0,4.652-2.455,4.867-4.7,5.3-.689,1.12.646,5.04,1.421,5.9,7.366-.172,10.208-4.738,10.208-11.328l.043-20.675Zm.086-7.624a14.03,14.03,0,0,0,.646,4.092,5.919,5.919,0,0,0,2.627.646,6.927,6.927,0,0,0,2.886-.646,6.727,6.727,0,0,0,.646-2.843,6.683,6.683,0,0,0-.646-2.8,5.919,5.919,0,0,0-2.627-.646,3.815,3.815,0,0,0-3.532,2.2Zm16.8,20.158c0-3.92,2.5-6.5,5.9-6.5,3.36.043,5.858,2.584,5.858,6.5v.129c-.043,3.834-2.412,6.375-5.858,6.375C205.659-29.042,203.29-31.626,203.29-35.546Zm18.608-10.9a24.356,24.356,0,0,0-2.8-.646,6.7,6.7,0,0,0-1.637.172,24.839,24.839,0,0,0-8.873-1.421c-.6,0-1.12.043-1.594.086-6.246.517-10.941,6.16-10.941,12.707s4.652,12.19,10.941,12.707a9.9,9.9,0,0,0,7.969-2.757v2.412H221.9Z" transform="translate(-49.573 60.27)" fill="#0f0f0f"/>
      </g>
      <path id="Path_8" data-name="Path 8" d="M10.363.007H8.641L7.6-5.394,5.585.137H4.949L2.933-5.394,1.853.007H.137L2.153-10.015H3.1L5.264-3.268l2.119-6.747h.937Zm7.025-.738a1.654,1.654,0,0,1-.81.625,3.084,3.084,0,0,1-1.207.243,2.73,2.73,0,0,1-1.859-.591,2.109,2.109,0,0,1-.677-1.678,2.35,2.35,0,0,1,.954-1.989A4.436,4.436,0,0,1,16.5-4.84a2.993,2.993,0,0,1,.711.1q0-1.292-1.634-1.292a3.621,3.621,0,0,0-1.613.321l-.369-1.326a4.8,4.8,0,0,1,2.1-.424,3.4,3.4,0,0,1,2.454.762,4.048,4.048,0,0,1,.779,2.888v1.565q0,1.463.588,1.839a.92.92,0,0,1-.472.455,1.9,1.9,0,0,1-.595.085.949.949,0,0,1-.663-.273A1.4,1.4,0,0,1,17.389-.731Zm-.164-2.714a3.631,3.631,0,0,0-.656-.089q-2.023,0-2.023,1.326,0,.984,1.142.984a1.359,1.359,0,0,0,1.538-1.538ZM27.442,0V-4.231A2.121,2.121,0,0,0,27.084-5.6a1.445,1.445,0,0,0-1.172-.431,1.816,1.816,0,0,0-.8.212,1.851,1.851,0,0,0-.667.526V0H22.733V-7.321h1.23l.314.684a2.55,2.55,0,0,1,2.058-.82,2.73,2.73,0,0,1,2.061.783,3.015,3.015,0,0,1,.755,2.184V0ZM34.3-10.158a.955.955,0,0,1,.7.291.955.955,0,0,1,.291.7.955.955,0,0,1-.291.7.955.955,0,0,1-.7.291.955.955,0,0,1-.7-.291.955.955,0,0,1-.291-.7.955.955,0,0,1,.291-.7A.955.955,0,0,1,34.3-10.158ZM33.415,0V-5.92h-.937v-1.4h2.666V0Zm9.76-8.757a3.01,3.01,0,0,0-.861-.185,1.026,1.026,0,0,0-.824.417A1.575,1.575,0,0,0,41.152-7.5q0,.089.007.178h1.518v1.408h-1.49V0H39.477V-5.913H38.41V-7.321h1.073a3.347,3.347,0,0,1,.8-2.174,2.457,2.457,0,0,1,1.917-.827,5.249,5.249,0,0,1,1.483.267Zm9.589,5.619H47.534a1.857,1.857,0,0,0,.6,1.36,2.181,2.181,0,0,0,1.49.485A2.408,2.408,0,0,0,51.4-1.9l.663,1.306a4.21,4.21,0,0,1-2.693.731,3.565,3.565,0,0,1-2.649-.981,3.716,3.716,0,0,1-.974-2.738,3.8,3.8,0,0,1,1.07-2.8,3.5,3.5,0,0,1,2.567-1.073,3.484,3.484,0,0,1,2.557.95,3.253,3.253,0,0,1,.964,2.42A4.774,4.774,0,0,1,52.764-3.138ZM47.6-4.423h3.6a1.606,1.606,0,0,0-1.777-1.606A1.759,1.759,0,0,0,47.6-4.423ZM55.783-.472l.608-1.36a2.707,2.707,0,0,0,1.729.608q1,0,1-.711a.872.872,0,0,0-.3-.684,4.6,4.6,0,0,0-1.169-.629q-1.894-.786-1.894-2.2a1.729,1.729,0,0,1,.725-1.48,3.059,3.059,0,0,1,1.853-.53,4.657,4.657,0,0,1,2.146.513l-.492,1.326A2.326,2.326,0,0,0,58.429-6.1q-.9,0-.9.711a.639.639,0,0,0,.294.506,6.069,6.069,0,0,0,1.258.6,3.223,3.223,0,0,1,1.388.919A2.05,2.05,0,0,1,60.9-2.051a1.916,1.916,0,0,1-.755,1.6,3.275,3.275,0,0,1-2.054.584,4.63,4.63,0,0,1-1.172-.12A5.751,5.751,0,0,1,55.783-.472Zm8.7-5.476h-.848V-7.321h.848v-1.49l1.709-.629v2.119H68.2v1.374h-2.01v3.206a1.89,1.89,0,0,0,.246,1.111,1.017,1.017,0,0,0,.861.325,2.12,2.12,0,0,0,1.148-.335V-.068a5.442,5.442,0,0,1-1.7.205,2.21,2.21,0,0,1-1.682-.619,2.456,2.456,0,0,1-.588-1.76ZM81.925-4.108V0H80.148V-4.108l-3.377-5.906h1.887L81.03-5.742l2.379-4.272h1.88Zm4.517.431a3.873,3.873,0,0,1,.967-2.728,3.3,3.3,0,0,1,2.553-1.053,3.329,3.329,0,0,1,2.591,1.012,3.953,3.953,0,0,1,.923,2.769A3.974,3.974,0,0,1,92.536-.9,3.307,3.307,0,0,1,89.962.137,3.29,3.29,0,0,1,87.368-.906,4.019,4.019,0,0,1,86.442-3.678Zm1.777,0q0,2.42,1.743,2.42a1.5,1.5,0,0,0,1.268-.629A2.956,2.956,0,0,0,91.7-3.678q0-2.386-1.736-2.386a1.507,1.507,0,0,0-1.271.629A2.875,2.875,0,0,0,88.219-3.678ZM101.52.007V-.608a3.09,3.09,0,0,1-1,.526,3.617,3.617,0,0,1-1.169.219Q96.8.137,96.8-2.57V-7.321h1.709V-2.7q0,1.408,1.265,1.408a2.055,2.055,0,0,0,1.08-.3,1.528,1.528,0,0,0,.663-.7V-7.321h1.709V.007Zm9.746-5.735a1.793,1.793,0,0,0-1-.3,1.364,1.364,0,0,0-1.056.54,1.961,1.961,0,0,0-.461,1.319V0h-1.709V-7.321h1.709v.67a2.428,2.428,0,0,1,1.907-.807,2.731,2.731,0,0,1,1.34.267ZM127.826.137,122.965-6.2V.007h-1.709V-10.015h.854l4.73,6.043v-6.043h1.709V.137Zm8.707-.868a1.654,1.654,0,0,1-.81.625,3.084,3.084,0,0,1-1.207.243,2.73,2.73,0,0,1-1.859-.591,2.109,2.109,0,0,1-.677-1.678,2.35,2.35,0,0,1,.954-1.989,4.436,4.436,0,0,1,2.71-.718,2.993,2.993,0,0,1,.711.1q0-1.292-1.634-1.292a3.621,3.621,0,0,0-1.613.321l-.369-1.326a4.8,4.8,0,0,1,2.1-.424,3.4,3.4,0,0,1,2.454.762,4.048,4.048,0,0,1,.779,2.888v1.565q0,1.463.588,1.839a.92.92,0,0,1-.472.455,1.9,1.9,0,0,1-.595.085.949.949,0,0,1-.663-.273A1.4,1.4,0,0,1,136.533-.731Zm-.164-2.714a3.632,3.632,0,0,0-.656-.089q-2.023,0-2.023,1.326,0,.984,1.142.984a1.359,1.359,0,0,0,1.538-1.538Zm5.768-2.5h-.848V-7.321h.848v-1.49l1.709-.629v2.119h2.01v1.374h-2.01v3.206a1.89,1.89,0,0,0,.246,1.111,1.017,1.017,0,0,0,.861.325,2.12,2.12,0,0,0,1.148-.335V-.068a5.442,5.442,0,0,1-1.7.205,2.21,2.21,0,0,1-1.682-.619,2.456,2.456,0,0,1-.588-1.76ZM154.1.007V-.608a3.09,3.09,0,0,1-1,.526,3.617,3.617,0,0,1-1.169.219q-2.55,0-2.55-2.707V-7.321H151.1V-2.7q0,1.408,1.265,1.408a2.055,2.055,0,0,0,1.08-.3,1.528,1.528,0,0,0,.663-.7V-7.321h1.709V.007Zm9.746-5.735a1.793,1.793,0,0,0-1-.3,1.364,1.364,0,0,0-1.056.54,1.961,1.961,0,0,0-.461,1.319V0h-1.709V-7.321h1.709v.67a2.428,2.428,0,0,1,1.907-.807,2.731,2.731,0,0,1,1.34.267ZM174.1-3.138h-5.229a1.857,1.857,0,0,0,.6,1.36,2.181,2.181,0,0,0,1.49.485,2.408,2.408,0,0,0,1.777-.608L173.4-.595A4.21,4.21,0,0,1,170.7.137a3.565,3.565,0,0,1-2.649-.981,3.716,3.716,0,0,1-.974-2.738,3.8,3.8,0,0,1,1.07-2.8,3.5,3.5,0,0,1,2.567-1.073,3.484,3.484,0,0,1,2.557.95,3.253,3.253,0,0,1,.964,2.42A4.774,4.774,0,0,1,174.1-3.138Zm-5.168-1.285h3.6a1.606,1.606,0,0,0-1.777-1.606A1.759,1.759,0,0,0,168.928-4.423Z" transform="translate(353.414 318.314)" fill="#626060"/>
    </g>
  </g>
</svg>
