<svg xmlns="http://www.w3.org/2000/svg" width="172.327" height="44.19" viewBox="0 0 172.327 44.19"><g transform="translate(-4507 -1084.214)"><g transform="translate(4154 822.214)"><g transform="translate(353 262)"><path d="M20.988-58.633H15L.14-23.184H7.979l2.843-7.193H25.166l2.886,7.193h7.8ZM22.452-37.01H13.536l4.437-10.855Zm22.226,1.464c0-3.92,2.5-6.5,5.9-6.5a5.8,5.8,0,0,1,5.815,5.3v2.5a5.726,5.726,0,0,1-5.815,5.212c-3.532,0-5.9-2.584-5.9-6.5ZM63.329-60.27H56.351l.043,13.008a14.814,14.814,0,0,0-5.384-1.077,17.679,17.679,0,0,0-3.274.258A12.341,12.341,0,0,0,37.571-36.752a11.058,11.058,0,0,0-.043,2.068c.388,6.2,4.91,11.458,10.941,11.845.818.043,1.594.043,2.326.043a14.164,14.164,0,0,0,7.882-2.627,10.6,10.6,0,0,1,.172,2.24h4.48Zm3.79,4.48a15.7,15.7,0,0,0,.6,4.135,5.944,5.944,0,0,0,2.671.6,7.267,7.267,0,0,0,2.929-.6,6.858,6.858,0,0,0,.6-2.843,6.516,6.516,0,0,0-.6-2.8,6.106,6.106,0,0,0-2.671-.646,3.9,3.9,0,0,0-3.529,2.154Zm-.086,32.607h7.021v-24.9H67.033Z" transform="translate(-0.14 60.27)" fill="#fe4f19"/><path d="M145.658-35.546c0,3.92-2.369,6.5-5.9,6.5a5.768,5.768,0,0,1-5.815-5.3v-2.412a5.768,5.768,0,0,1,5.815-5.3C143.159-42.007,145.658-39.466,145.658-35.546ZM127.05-60.27v37.086h4.437a10.4,10.4,0,0,1,.172-2.24,14.5,14.5,0,0,0,7.882,2.627c.732,0,1.508,0,2.326-.043,6.03-.388,10.6-5.6,10.941-11.845a11.061,11.061,0,0,0-.043-2.068c-.474-5.944-5.04-11.07-10.9-11.5a8.606,8.606,0,0,0-1.508-.086,22.009,22.009,0,0,0-6.418,1.077l.043-13.008Zm35.88,12.319h-6.978v14.473c0,6.719,4.566,10.682,11.845,10.725,6.763,0,11.285-3.661,11.716-9.39a21.781,21.781,0,0,0,.086-2.412l.043-13.4h-6.978V-36.67c0,1.206-.043,2.369-.086,3.446-.215,2.843-1.809,4.35-4.781,4.35s-4.566-1.508-4.824-4.35c-.043-1.077-.086-2.24-.043-3.446Zm23.475-.129v20.8c0,4.652-2.455,4.867-4.7,5.3-.689,1.12.646,5.04,1.421,5.9,7.366-.172,10.208-4.738,10.208-11.328l.043-20.675Zm.086-7.624a14.029,14.029,0,0,0,.646,4.092,5.919,5.919,0,0,0,2.627.646,6.927,6.927,0,0,0,2.886-.646,6.727,6.727,0,0,0,.646-2.843,6.683,6.683,0,0,0-.646-2.8,5.919,5.919,0,0,0-2.627-.646,3.815,3.815,0,0,0-3.532,2.2Zm16.8,20.158c0-3.92,2.5-6.5,5.9-6.5,3.36.043,5.858,2.584,5.858,6.5v.129c-.043,3.834-2.412,6.375-5.858,6.375-3.532,0-5.9-2.584-5.9-6.5Zm18.608-10.9a24.358,24.358,0,0,0-2.8-.646,6.7,6.7,0,0,0-1.637.172,24.839,24.839,0,0,0-8.873-1.421c-.6,0-1.12.043-1.594.086-6.246.517-10.941,6.16-10.941,12.707S200.706-23.358,207-22.841a9.9,9.9,0,0,0,7.969-2.757v2.412H221.9Z" transform="translate(-49.573 60.27)" fill="#0f0f0f"/></g></g></g></svg>